<svg xmlns="http://www.w3.org/2000/svg" viewBox="0 0 800 800" role="img" aria-labelledby="title desc">
  <title id="title">USV1 GSF</title>
  <desc id="desc">Logo circular con texto USV1 y GSF, arcos azules y una pareja bailando al centro.</desc>
  <defs>
    <style>
      .navy { stroke: #243753; fill: none; }
      .cyan { stroke: #2d9cdb; fill: none; }
      .white-fill { fill: #ffffff; }
      .navy-fill { fill: #243753; }
      .outline { stroke-linecap: round; stroke-linejoin: round; }
      .brand-text { fill: #243753; font-family: 'Arial Black', 'Segoe UI', sans-serif; font-weight: 900; letter-spacing: 8px; }
    </style>
  </defs>

  <circle cx="400" cy="400" r="365" fill="#ffffff" stroke="#000000" stroke-width="12"/>

  <path class="cyan outline" d="M132 244 C92 298 80 370 92 492" stroke-width="18"/>
  <path class="cyan outline" d="M668 244 C708 298 720 370 708 492" stroke-width="18"/>

  <text class="brand-text" x="400" y="132" text-anchor="middle" font-size="86">USV1</text>
  <text class="brand-text" x="400" y="696" text-anchor="middle" font-size="86">GSF</text>

  <g transform="translate(0 8)">
    <g class="outline" stroke-width="24">
      <circle class="cyan white-fill" cx="318" cy="301" r="30"/>
      <path class="cyan white-fill" d="M292 330 C274 368 270 410 274 452"/>
      <path class="cyan" d="M295 344 C261 349 236 366 213 393"/>
      <path class="cyan" d="M323 344 C365 330 402 335 438 370"/>
      <path class="cyan white-fill" d="M266 448 C228 520 221 586 266 622 C325 652 392 651 452 623 C488 595 490 543 455 460 C397 431 327 425 266 448 Z"/>
      <path class="cyan" d="M314 450 C305 502 301 554 307 614"/>
      <path class="cyan" d="M353 444 C349 504 350 560 359 620"/>
      <path class="cyan" d="M393 448 C399 503 408 555 420 609"/>

      <circle class="cyan white-fill" cx="458" cy="286" r="29"/>
      <path class="cyan white-fill" d="M432 315 L489 336 L485 475 L426 472 Z"/>
      <path class="cyan" d="M432 345 C392 324 356 324 330 347"/>
      <path class="cyan" d="M480 349 C515 365 540 392 557 423"/>
      <path class="cyan white-fill" d="M430 474 L469 475 L470 646 L430 646 Z"/>
      <path class="cyan white-fill" d="M470 474 L506 474 L510 646 L474 646 Z"/>
      <path class="cyan" d="M483 362 C503 403 516 443 521 495"/>
    </g>

    <g class="outline" stroke-width="10">
      <circle class="navy white-fill" cx="318" cy="301" r="30"/>
      <path class="navy" d="M304 294 C313 283 326 282 337 291"/>
      <path class="navy" d="M307 310 C316 316 325 316 333 310"/>
      <path class="navy" d="M292 330 C274 368 270 410 274 452"/>
      <path class="navy" d="M295 344 C261 349 236 366 213 393"/>
      <path class="navy" d="M323 344 C365 330 402 335 438 370"/>
      <path class="navy white-fill" d="M266 448 C228 520 221 586 266 622 C325 652 392 651 452 623 C488 595 490 543 455 460 C397 431 327 425 266 448 Z"/>
      <path class="navy" d="M314 450 C305 502 301 554 307 614"/>
      <path class="navy" d="M353 444 C349 504 350 560 359 620"/>
      <path class="navy" d="M393 448 C399 503 408 555 420 609"/>

      <circle class="navy white-fill" cx="458" cy="286" r="29"/>
      <path class="navy" d="M445 280 C454 269 467 268 478 277"/>
      <path class="navy white-fill" d="M432 315 L489 336 L485 475 L426 472 Z"/>
      <path class="navy" d="M432 345 C392 324 356 324 330 347"/>
      <path class="navy" d="M480 349 C515 365 540 392 557 423"/>
      <path class="navy white-fill" d="M430 474 L469 475 L470 646 L430 646 Z"/>
      <path class="navy white-fill" d="M470 474 L506 474 L510 646 L474 646 Z"/>
      <path class="navy" d="M483 362 C503 403 516 443 521 495"/>
    </g>
  </g>
</svg>